<svg xmlns="http://www.w3.org/2000/svg" viewBox="0 0 241.92 49.04"><defs><style>.cls-1{fill:#fff;}</style></defs><g id="Layer_2" data-name="Layer 2"><g id="Layer_1-2" data-name="Layer 1"><path class="cls-1" d="M27.23,44.79q-5.89,0-6-6.51v-.51a24.53,24.53,0,0,1,3.56-12.4q3.56-6.15,9.28-6.58a6.11,6.11,0,0,1,4.2,1.58q1.77,1.57,2,5.65a22.8,22.8,0,0,1-4,12.74Q32.28,44.79,27.23,44.79Zm9.47-16A15,15,0,0,0,36.82,27c0-1.05-.19-1.73-.58-2a1.26,1.26,0,0,0-.71-.21,3.39,3.39,0,0,0-1.86.91,9.85,9.85,0,0,0-2.36,3.07,17.66,17.66,0,0,0-2.16,6.75c0,.25,0,.5,0,.72,0,1.52.47,2.29,1.4,2.29s1.64-.57,2.54-1.69a18.44,18.44,0,0,0,2.36-4A15.82,15.82,0,0,0,36.7,28.77Z"/><path class="cls-1" d="M46.65,44.79q-5.9,0-6-6.51v-.51a24.53,24.53,0,0,1,3.56-12.4q3.56-6.15,9.28-6.58a6.11,6.11,0,0,1,4.2,1.58q1.77,1.57,2,5.65a22.8,22.8,0,0,1-4,12.74Q51.7,44.79,46.65,44.79Zm9.47-16A15,15,0,0,0,56.24,27c0-1.05-.19-1.73-.58-2a1.26,1.26,0,0,0-.71-.21,3.39,3.39,0,0,0-1.86.91,9.85,9.85,0,0,0-2.36,3.07,17.66,17.66,0,0,0-2.16,6.75c0,.25,0,.5,0,.72,0,1.52.47,2.29,1.4,2.29s1.64-.57,2.54-1.69a18.44,18.44,0,0,0,2.36-4A15.82,15.82,0,0,0,56.12,28.77Z"/><path class="cls-1" d="M89.84,7.79A5,5,0,0,1,93.5,9.23a4,4,0,0,1,1.29,3c0,.16,0,.33,0,.51a27.24,27.24,0,0,0-9.7,10,31.83,31.83,0,0,0-4,10.91,20,20,0,0,0-.2,2.53c0,1.58.35,2.38,1,2.38q1.42,0,3.69-3.26a78.73,78.73,0,0,0,4.2-6.79h2.35L91.1,31a58.85,58.85,0,0,1-3,5.69,28.25,28.25,0,0,1-4.23,5.61,7.38,7.38,0,0,1-5,2.51q-3.39,0-3.59-6.56-4.17,6.56-9.3,6.56-5.89,0-6-6.53v-.51a24.48,24.48,0,0,1,3.56-12.38q3.56-6.15,9.29-6.58a6.12,6.12,0,0,1,5.31,3.13,37.71,37.71,0,0,1,4.47-9.25q2.67-3.9,6-4.68l.22,0A3.71,3.71,0,0,1,89.84,7.79Zm-15.3,16.8c-1.39.24-2.87,1.63-4.44,4.15A15.52,15.52,0,0,0,68,35.47v.34c0,1.81.64,2.72,1.94,2.72.79,0,1.64-.57,2.56-1.69a19.45,19.45,0,0,0,2.43-4,16.33,16.33,0,0,0,1.37-4.15,13.09,13.09,0,0,0,.1-1.43c0-1.83-.53-2.74-1.58-2.74Z"/><path class="cls-1" d="M103.29,7.77a4.85,4.85,0,0,1,3.59,1.46,4,4,0,0,1,1.26,3c0,.16,0,.33,0,.51a16,16,0,0,0-8.86,6.51,29.64,29.64,0,0,0-4.62,10.87A21.43,21.43,0,0,1,99.43,22a9.23,9.23,0,0,1,6.7-3.17c2.84.15,4.56,1,5.14,2.65a7.08,7.08,0,0,1,.42,2.47,15.55,15.55,0,0,1-.76,4.09,42.47,42.47,0,0,1-2.09,5.55q-.95,2.19-1.38,3.57a2.47,2.47,0,0,0-.14.77c0,.41.17.61.53.61.89,0,2.09-1,3.61-3.11a49.89,49.89,0,0,0,4.25-7h2.48l-1.26,2.5a61.43,61.43,0,0,1-3.35,5.71,32.81,32.81,0,0,1-4.65,5.7,7.48,7.48,0,0,1-5.16,2.5q-4.2,0-4.2-4.24a3.91,3.91,0,0,1,0-.49,21.48,21.48,0,0,1,2-7.84,46,46,0,0,0,1.53-5,5.69,5.69,0,0,0,.14-1.14c0-.74-.24-1.19-.73-1.36q-1.77.11-3.6,3.31a30,30,0,0,0-3,7.62,25.36,25.36,0,0,0-.85,6.31,17.38,17.38,0,0,0,.1,1.92l-.08,0a10.15,10.15,0,0,1-1.19.59,4.19,4.19,0,0,1-1.67.3c-2.07,0-3.25-1.76-3.52-5.29,0-.71-.07-1.45-.07-2.21a49,49,0,0,1,1.44-10.74,44.53,44.53,0,0,1,4.58-11.84c2.08-3.74,4.5-6,7.23-6.72l.2,0A4.56,4.56,0,0,1,103.29,7.77Z"/><path class="cls-1" d="M120.28,18.79a6.19,6.19,0,0,1,3.11.9,3.81,3.81,0,0,1,1.91,2.6c-.13.3-.26.62-.38.94-.86,2-1.74,4.21-2.65,6.56a40.9,40.9,0,0,0-1.92,6.11,6.23,6.23,0,0,0-.19,1.39c0,.82.29,1.24.87,1.24s1.38-.94,2.57-2.82,2.48-4.08,3.85-6.6,2.62-4.87,3.75-7l.37-.73c.16-.29.31-.58.46-.88.37-.69.69-1.25,1-1.67a6.19,6.19,0,0,1,3.11.9,3.81,3.81,0,0,1,1.91,2.6q-1.31,3-2.79,6.73a46.79,46.79,0,0,0-2.13,6.62,7.34,7.34,0,0,0-.22,1.62c0,.84.29,1.27.87,1.27.91,0,2.11-1,3.62-3.1a52.92,52.92,0,0,0,4.25-7h2.47L142.83,31a61.11,61.11,0,0,1-3.34,5.71,31,31,0,0,1-4.6,5.62,7.93,7.93,0,0,1-5.12,2.51c-2.86,0-4.3-1.4-4.3-4.2a5.4,5.4,0,0,1,0-.56,13.53,13.53,0,0,1,.29-2.74,32.12,32.12,0,0,1-4.42,5.35,6.48,6.48,0,0,1-4.32,2.15c-2.86,0-4.3-1.4-4.3-4.2a5.4,5.4,0,0,1,0-.56,29.8,29.8,0,0,1,2.86-11.69A94,94,0,0,1,120.28,18.79Z"/><path class="cls-1" d="M146.08,18.79v-.1a7.29,7.29,0,0,1,3.41.95,4,4,0,0,1,2.18,2.67c2.08-2.35,4.27-3.52,6.55-3.52q3.89,0,4.66,2.38a7.84,7.84,0,0,1,.37,2.43,17.09,17.09,0,0,1-.65,4,48.25,48.25,0,0,1-1.83,5.55c-.58,1.55-1,2.84-1.29,3.86a3.44,3.44,0,0,0-.12.8c0,.47.19.71.56.71.91,0,2.11-1,3.62-3.11a53.56,53.56,0,0,0,4.27-7h2.45L169,30.88a59.82,59.82,0,0,1-3.34,5.7,33.56,33.56,0,0,1-4.61,5.71,7.37,7.37,0,0,1-5.11,2.5q-4.2,0-4.2-4c0-.23,0-.46,0-.71a21.73,21.73,0,0,1,2-7.81,40.92,40.92,0,0,0,1.5-5.05,5.26,5.26,0,0,0,.15-1.14c0-.75-.25-1.21-.76-1.39q-2.22.06-4.49,3.55a26.46,26.46,0,0,0-3.37,7.86,15,15,0,0,0-.51,3.64,7.58,7.58,0,0,0,.7,3.38,5.83,5.83,0,0,1-4.07,1.7q-4.2,0-4.2-4.25a4.1,4.1,0,0,1,0-.49,32.22,32.22,0,0,1,2.59-11.27,91.36,91.36,0,0,1,4.55-9.5C145.9,19.11,146,19,146.08,18.79Z"/><path class="cls-1" d="M191.79,8.11a5,5,0,0,1,2.65.85,4.26,4.26,0,0,1,2.28,3.71,8.76,8.76,0,0,0-3.32,3.23l.75,0c1.47,0,2.45.39,2.94,1.16a1.7,1.7,0,0,1,.26.85,2.21,2.21,0,0,1-1.19,1.7,6.18,6.18,0,0,0-3-.53c-.5,0-1.06,0-1.68.07A62.23,62.23,0,0,0,188,27.58a43.26,43.26,0,0,0-2,7.72,10.57,10.57,0,0,0-.15,1.62c0,1.1.29,1.65.85,1.65q1.34,0,3.61-3.09a52.25,52.25,0,0,0,4.26-7H197L195.75,31a61.11,61.11,0,0,1-3.34,5.71,30.94,30.94,0,0,1-4.61,5.61,8,8,0,0,1-5.11,2.52h-.1c-1.57,0-2.55-.86-3-2.58a13.33,13.33,0,0,1-.34-3.15,24.72,24.72,0,0,1,.27-3.47,35.7,35.7,0,0,1-4.82,6.3,8.21,8.21,0,0,1-5.52,2.9h-.1c-2,0-3-1.31-3.23-3.91,0-.49,0-1,0-1.48A38.7,38.7,0,0,1,167,31a85.75,85.75,0,0,1,3.16-10.44q-6-.51-8.74-4.18a2.93,2.93,0,0,1-.44-1.53,4.74,4.74,0,0,1,.47-1.73,3.16,3.16,0,0,1,1.93-1.62,2.3,2.3,0,0,1,.75-.14,3.42,3.42,0,0,1,2.31,1.14,3.85,3.85,0,0,0,0,.48c0,2,1.74,3.24,5.24,3.69a29.77,29.77,0,0,1,3.13-5.58,5.52,5.52,0,0,1,4.27-2.67A4.14,4.14,0,0,1,181,9a4.26,4.26,0,0,1,2.28,3.71,6.42,6.42,0,0,0-1.85,1.73c-.72.9-1.4,1.82-2,2.74l5.77-.29a36,36,0,0,1,3.13-6.36C189.29,8.9,190.47,8.11,191.79,8.11Zm-8,11.87-2,.19c-1.47.17-3,.29-4.47.37a64.06,64.06,0,0,0-3.21,8.08,40,40,0,0,0-1.69,7,10.86,10.86,0,0,0-.1,1.26c0,1.1.28,1.65.83,1.65q1.34,0,3.6-3.09a50.25,50.25,0,0,0,4.26-7C181.94,25.53,182.85,22.68,183.81,20Z"/><path class="cls-1" d="M205.41,18.79a6,6,0,0,1,5.9,6.48c0,.24,0,.49,0,.73a13.76,13.76,0,0,1-3.4,7.63,9,9,0,0,1-6.56,3.46,2.77,2.77,0,0,0,.74,1.37,2.36,2.36,0,0,0,1.55.72,4.46,4.46,0,0,0,.63,0q4.83,0,10.65-10.78h2.48a33.81,33.81,0,0,1-7.88,12q-4.69,4.37-8.55,4.36-7.06,0-7.8-6.51A21.48,21.48,0,0,1,193,36a23.56,23.56,0,0,1,3.26-11.32C198.45,20.76,201.5,18.79,205.41,18.79Zm1.43,5.78a.66.66,0,0,0-.21,0,3.6,3.6,0,0,0-2.06,1.14,10.08,10.08,0,0,0-2.29,3.45,5.91,5.91,0,0,0-.41,1.92,1.54,1.54,0,0,0,.39,1.14.82.82,0,0,0,.55.22A3.67,3.67,0,0,0,205,31.12a7.85,7.85,0,0,0,1.54-2.35,9.41,9.41,0,0,0,.82-2.72c0-.18,0-.34,0-.49C207.33,25,207.17,24.68,206.84,24.57Z"/><path class="cls-1" d="M224.93,18.72c2.43,0,3.8.82,4.13,2.47a10,10,0,0,1,.14,1.65,15.47,15.47,0,0,1-.85,4.54,48.31,48.31,0,0,1-2,5.29,29.17,29.17,0,0,0-2,6.68,10.1,10.1,0,0,0-.15,1.65,4.2,4.2,0,0,0,1,3,1.1,1.1,0,0,0,.73.27,4.62,4.62,0,0,0,2.45-1.32,15.51,15.51,0,0,0,3.21-4,10,10,0,0,0,1.6-5.14c0-1.65-1-2.81-2.86-3.47.06-2.69,1-4.53,2.79-5.54a6.27,6.27,0,0,1,3.06-.82,9.39,9.39,0,0,1,3.24.81q2,.81,2.56,4.7c0,.26,0,.52,0,.8a16.89,16.89,0,0,1-2.88,9,24.27,24.27,0,0,1-7.22,7.46A11.74,11.74,0,0,1,225.34,49a8.14,8.14,0,0,1-1.55-.15q-4.47-1.26-5.37-4.9a15.36,15.36,0,0,1-.43-3.67,24.35,24.35,0,0,1,.7-5.12,44.21,44.21,0,0,1,1.72-5.85c.05-.16.1-.32.15-.46.16-.41.32-.88.48-1.42A5.3,5.3,0,0,0,221.3,26c0-.43-.14-.64-.45-.64h0a1,1,0,0,0-.7.36,6.32,6.32,0,0,0-.71.95,9.66,9.66,0,0,1-1.23,1.54,3.38,3.38,0,0,1-1.87.94,4.26,4.26,0,0,1-.61,0,3.23,3.23,0,0,1-2.91-1.74,4.91,4.91,0,0,1-.61-2.53,11.57,11.57,0,0,1,.53-3.18c.7-1.75,1.66-2.73,2.89-3a2.81,2.81,0,0,1,.49-.05,2.86,2.86,0,0,1,2.5,1.8c.19.39.43.58.7.58a2.17,2.17,0,0,0,.44-.11,4.74,4.74,0,0,0,1.14-.69,15.21,15.21,0,0,1,1.78-1.08A4.93,4.93,0,0,1,224.93,18.72Z"/><path class="cls-1" d="M27.59,4.08a1.79,1.79,0,0,1-.2.89A2.66,2.66,0,0,1,26.3,6c-.2,0-.4.14-.6.19l-.59.15a9.6,9.6,0,0,0-1.1.15c-1,.15-2.09.3-3.18.35-.5,0-4.42.1-7.16.2L11,7.11s-.15,1.19-.35,2.68c-.3,2.69-.55,6.37-.6,7.31a5.92,5.92,0,0,0,1.44-.45A19.51,19.51,0,0,1,18,15.31,9.48,9.48,0,0,1,24,17.4a2.31,2.31,0,0,1,.35.35,2,2,0,0,1,.25.45,1.54,1.54,0,0,1,.3.84,1.18,1.18,0,0,1-.1.4,1.67,1.67,0,0,1-1.15.74,10.24,10.24,0,0,1-2.48.35,6,6,0,0,0-1.34.1,26.43,26.43,0,0,0-6.12,1.74l-.4.15a9.29,9.29,0,0,0-3,2,5.6,5.6,0,0,0-1.74,2.24c-.25.74-.5,1.54-.7,2.33a14.06,14.06,0,0,0-.49,2.44l-.05.1A61.8,61.8,0,0,0,6.56,39c0,.39,0,.79,0,1.19,0,.69,0,1.39,0,2.09,0,.49,0,1,0,1.54,0,.15,0,.3,0,.44a1.33,1.33,0,0,1-.5,1.15,1.18,1.18,0,0,1-.74.25,3.88,3.88,0,0,1-.94-.2,4.8,4.8,0,0,1-1.84-.9A4.76,4.76,0,0,1,1.19,43,10.8,10.8,0,0,1,.1,37.73c0-.35,0-.74-.1-1.09v0a60.56,60.56,0,0,1,.94-9.45L1,26.85S3,7.51,3.28,4.33v-.4C3.28,1.34,5.77.4,9,.1c.74,0,1.54-.1,2.34-.1,1.93,0,4,.15,5.71.3,1.34.1,2.54.2,3.38.2H21c.74,0,1.49-.1,2.14-.1C25.3.4,27,.94,27.54,3.58A1.7,1.7,0,0,1,27.59,4.08Z"/></g></g></svg>